<svg width="90" height="90" viewBox="0 0 90 90" fill="none" xmlns="http://www.w3.org/2000/svg">
<path opacity="0.1" d="M44.5144 86.5582C67.3165 86.5582 85.8013 68.0734 85.8013 45.2713C85.8013 22.4692 67.3165 3.9844 44.5144 3.9844C21.7122 3.9844 3.22744 22.4692 3.22744 45.2713C3.22744 68.0734 21.7122 86.5582 44.5144 86.5582Z" stroke="#3060F1" stroke-width="4.76387"/>
<path d="M38.0522 86.0491C43.5994 86.9284 49.2676 86.6666 54.7102 85.2798C60.1527 83.8929 65.2551 81.4103 69.7051 77.9836C74.1551 74.557 77.8592 70.2584 80.5907 65.3509C83.3222 60.4434 85.0237 55.0302 85.5911 49.4425C86.1586 43.8548 85.58 38.2101 83.8907 32.8537C82.2015 27.4973 79.4372 22.5418 75.7668 18.2905C72.0965 14.0393 67.5974 10.5816 62.5448 8.12894C57.4921 5.67633 51.9922 4.2804 46.3815 4.02656" stroke="#3060F1" stroke-width="4.76387" stroke-linecap="round"/>
<ellipse opacity="0.05" cx="44.515" cy="45.2713" rx="30.1712" ry="30.1712" fill="#3060F1"/>
<path d="M37.2007 51.7176C36.6007 51.7176 36.0357 51.6076 35.5057 51.3876C34.9857 51.1676 34.5357 50.8576 34.1557 50.4576C33.7857 50.0576 33.5207 49.5876 33.3607 49.0476L34.8607 48.4776C35.0607 49.0076 35.3657 49.4176 35.7757 49.7076C36.1857 49.9976 36.6607 50.1426 37.2007 50.1426C37.6407 50.1426 38.0207 50.0576 38.3407 49.8876C38.6707 49.7176 38.9257 49.4776 39.1057 49.1676C39.2957 48.8576 39.3907 48.4826 39.3907 48.0426C39.3907 47.6126 39.2957 47.2426 39.1057 46.9326C38.9257 46.6226 38.6707 46.3876 38.3407 46.2276C38.0207 46.0676 37.6407 45.9876 37.2007 45.9876C37.0207 45.9876 36.8357 46.0026 36.6457 46.0326C36.4657 46.0626 36.3057 46.1026 36.1657 46.1526L35.7757 45.3276L38.7157 41.8626H33.9607V40.3626H40.6957V41.7876L37.8157 45.2376L37.7707 44.6676C38.4407 44.6776 39.0307 44.8276 39.5407 45.1176C40.0507 45.3976 40.4457 45.7876 40.7257 46.2876C41.0157 46.7776 41.1607 47.3476 41.1607 47.9976C41.1607 48.6976 40.9907 49.3326 40.6507 49.9026C40.3107 50.4626 39.8407 50.9076 39.2407 51.2376C38.6507 51.5576 37.9707 51.7176 37.2007 51.7176ZM43.1006 51.5376L47.8706 41.8626H42.5006V40.3626H49.7156V41.8626L45.0206 51.5376H43.1006ZM52.9213 51.5376V41.8626H50.7762V40.3626H54.6763V51.5376H52.9213Z" fill="#3060F1"/>
</svg>
